<svg id="Capa_1" data-name="Capa 1" xmlns="http://www.w3.org/2000/svg" xmlns:xlink="http://www.w3.org/1999/xlink" viewBox="0 0 297.69 266.56"><defs><style>.cls-1,.cls-13,.cls-14{fill:#fff;}.cls-1,.cls-2{fill-rule:evenodd;}.cls-2{fill:url(#Degradado_sin_nombre_74);}.cls-3{mask:url(#mask);}.cls-4,.cls-5{isolation:isolate;}.cls-13,.cls-14,.cls-15,.cls-5{font-size:87.41px;font-family:Arial-BoldMT, Arial;font-weight:700;}.cls-6{fill:#572ee5;}.cls-7{fill:#7cfff1;}.cls-8{fill:url(#Degradado_sin_nombre_74-2);}.cls-9{fill:#fbf4f4;}.cls-10{fill:#ede2e2;}.cls-11{fill:#451ec8;}.cls-12{fill:#4a1ee3;}.cls-13,.cls-14,.cls-15{letter-spacing:0.01em;}.cls-14{stroke:#fff;stroke-width:3px;}.cls-14,.cls-15{stroke-miterlimit:10;}.cls-15{fill:none;stroke:#000;stroke-width:0.5px;}</style><linearGradient id="Degradado_sin_nombre_74" x1="-18.23" y1="16.63" x2="230.96" y2="253.06" gradientUnits="userSpaceOnUse"><stop offset="0.13" stop-color="#7cf9ff"/><stop offset="0.24" stop-color="#7df7ff"/><stop offset="0.28" stop-color="#81f0ff"/><stop offset="0.31" stop-color="#89e5ff"/><stop offset="0.33" stop-color="#93d4ff"/><stop offset="0.35" stop-color="#a1beff"/><stop offset="0.36" stop-color="#b2a3ff"/><stop offset="0.38" stop-color="#be8fff"/><stop offset="1"/></linearGradient><mask id="mask" x="42.88" y="92.57" width="250.9" height="137.02" maskUnits="userSpaceOnUse"><g transform="translate(-7.87 -4.17)"><g id="mask-2"><polygon id="path-1" class="cls-1" points="50.76 96.74 290.34 96.74 290.34 203.36 50.76 203.36 50.76 96.74"/></g></g></mask><linearGradient id="Degradado_sin_nombre_74-2" x1="149.47" y1="98.46" x2="219.58" y2="98.46" xlink:href="#Degradado_sin_nombre_74"/></defs><title>DARKCHILL3</title><g id="GIFOS"><g id="_00-UI-Kit" data-name="00-UI-Kit"><g id="logo-mobile"><g id="Group-5"><polygon class="cls-2" points="247.51 114.24 247.51 76.16 190.39 76.16 190.39 19.04 19.04 19.04 19.04 247.52 247.51 247.52 247.51 209.44 266.55 209.44 266.55 266.56 0 266.56 0 0 209.43 0 266.55 57.12 266.55 114.24 247.51 114.24"/><g id="Group-4"><g class="cls-3"><g id="GIFOS-2" data-name="GIFOS" class="cls-4"><text class="cls-5" transform="translate(43.7 196.68) scale(0.92 1)">GIFOS</text></g></g></g></g></g></g></g><path class="cls-6" d="M68.94,151.8a1.5,1.5,0,0,0,0-3,1.5,1.5,0,0,0,0,3Z" transform="translate(-7.87 -4.17)"/><path class="cls-6" d="M154.72,149.76a1.5,1.5,0,0,0,0-3,1.5,1.5,0,0,0,0,3Z" transform="translate(-7.87 -4.17)"/><path class="cls-7" d="M210.46,139.28a19.86,19.86,0,0,1-4,1.63l-55.29,15.71a19.67,19.67,0,0,1-24.61-14.77l-8.39-38.79a46,46,0,0,1,5-32.47,42.73,42.73,0,0,1,25.48-20.38l4-1.13A42.77,42.77,0,0,1,185,53a46.09,46.09,0,0,1,21.35,25l10.38,29.35,2.86,8.06a19.69,19.69,0,0,1-9.14,23.86Z" transform="translate(-7.87 -4.17)"/><path class="cls-8" d="M209.3,139.61a19.77,19.77,0,0,1-4,1.63l-27.65,7.85L149.47,50l2-.57a42.72,42.72,0,0,1,32.39,4,46.06,46.06,0,0,1,21.35,25l10.39,29.35,2.85,8.06a19.68,19.68,0,0,1-9.14,23.86Z" transform="translate(-7.87 -4.17)"/><path class="cls-9" d="M206.43,140.91l-55.3,15.7a19.65,19.65,0,0,1-24.6-14.76l-1.81-8.36a36,36,0,0,0,4.57-7.42,41,41,0,0,0,2.19-26.39l0-.1L130.19,95a14,14,0,0,1,9.69-17.11l1-.29a14,14,0,0,1,17.28,9.64L160,93.63,165.8,92,164,85.54a14,14,0,0,1,9.63-17.28l1-.28a14,14,0,0,1,17.24,9.47c1.32,4.48,2.46,9.57,7.07,16.13a36.38,36.38,0,0,0,17.84,13.78l2.85,8.06a19.65,19.65,0,0,1-13.17,25.49Z" transform="translate(-7.87 -4.17)"/><path class="cls-10" d="M206.43,140.91l-27.65,7.85L162.89,92.81,165.8,92,164,85.54a14,14,0,0,1,9.63-17.28l1-.28a14,14,0,0,1,17.24,9.47c1.32,4.48,2.46,9.57,7.07,16.13a36.38,36.38,0,0,0,17.84,13.78l2.85,8.06a19.65,19.65,0,0,1-13.17,25.49Z" transform="translate(-7.87 -4.17)"/><path class="cls-11" d="M182.42,102.15l-7,11.43a9.4,9.4,0,0,1-12.22,3.47l-12-6a5.42,5.42,0,0,1-1.52-8.55l9.64-10.31a6.36,6.36,0,0,1,6.31-1.79l13.62,3.7A5.43,5.43,0,0,1,182.42,102.15Z" transform="translate(-7.87 -4.17)"/><path class="cls-12" d="M182.43,100.83l-7,11.43a9.37,9.37,0,0,1-5.43,4.12l-7.76-27.31a6.37,6.37,0,0,1,3.41,0l13.62,3.71a5.41,5.41,0,0,1,3.19,8.07Z" transform="translate(-7.87 -4.17)"/><text class="cls-13" transform="translate(43.7 196.78) scale(0.92 1)">GIFOS</text><text class="cls-14" transform="translate(43.7 196.78) scale(0.92 1)">GIFOS</text><text class="cls-15" transform="translate(43.7 196.78) scale(0.92 1)">GIFOS</text><path d="M198.68,65.48l-6,1.57-30.18,7.87.7,2.69.84,1.94L158.44,81l-.22-2.11-.7-2.68-36.2,9.44-3.65,1,1.23,4.71,3.64-.95,4.83,11.26a12,12,0,0,0,6,6.13,13.18,13.18,0,0,0,8.87.76l7.77-2a13.27,13.27,0,0,0,7.38-5,12,12,0,0,0,2.27-8.3l-.76-7.3,7-1.83,2.9,6.73a12,12,0,0,0,6,6.14,13.25,13.25,0,0,0,8.87.75l7.78-2a13.26,13.26,0,0,0,7.37-5,12,12,0,0,0,2.27-8.3l-1.28-12.18,3.64-1-1.23-4.71Zm-61.19,38.44a7.36,7.36,0,0,1-5.36-4.2l8.79-14.15,9.53-2.48Zm41.39-10.85a7.35,7.35,0,0,1-5.27-4.22l0-.08,8.69-14,9.53-2.48Z" transform="translate(-7.87 -4.17)"/><path d="M139.15,99A33.79,33.79,0,0,0,133,97.73c-1.57-.17-1.91,2.07-.76,2.8a16.86,16.86,0,0,1,5.47,5.58l.24-1.82c.25-.26.52.07.25-.23a3.06,3.06,0,0,0-.56-.33c-.54-.34-1.07-.69-1.58-1.07a22.79,22.79,0,0,1-2.68-2.42l-1.06,2.56a11.45,11.45,0,0,1,6.09,1.41l1.52-2.59a9.81,9.81,0,0,1-5-8.31,10.86,10.86,0,0,1,.11-2.55c.06-.27.14-.88.43-1s.05-.07.12.2c.51,1.82-.7,4.12-1.91,5.38l2.12,2.12q3.65-4.66,7.52-9.14l-2.51-1.46a23.76,23.76,0,0,1-3.25,7c-1.39,2.35-2.88,4.64-4.45,6.89-1,1.4,1.19,3,2.36,1.81q6.08-6.28,11.88-12.84l-2.51-1.46a29.29,29.29,0,0,1-5.58,10.25c-1.23,1.45.74,3.51,2.12,2.12a39,39,0,0,0,8.93-14.19c.59-1.64-1.88-2.56-2.74-1.16A52.62,52.62,0,0,1,136.78,97.7l2.5,1.46c.33-2.15,2-4.19,3.08-6q1.94-3.12,4-6.15c.93-1.35-.83-2.62-2.06-2a56.09,56.09,0,0,0-5.56,3c-1.4.85-.51,3.32,1.15,2.74A71.52,71.52,0,0,0,150.49,86a1.51,1.51,0,0,0-1.16-2.74,48.88,48.88,0,0,1-11.55,1.47l.4,3q5.79-1.2,11.5-2.72c1.89-.5,1.07-3.21-.8-2.89A58.41,58.41,0,0,0,141.15,84c-1.55.48-1.36,3,.4,2.94a22.21,22.21,0,0,0,6.64-1.38c1.79-.68,1-3.58-.8-2.89a19.89,19.89,0,0,1-5.84,1.27l.39,3A58.94,58.94,0,0,1,149.68,85l-.8-2.89q-5.72,1.52-11.49,2.72c-1.68.35-1.28,3,.39,2.94a53,53,0,0,0,12.35-1.58L149,83.42a66.53,66.53,0,0,1-9.84,4.37l1.16,2.74a56.24,56.24,0,0,1,5.57-3l-2.05-2.06q-2.22,3.21-4.26,6.52c-1.19,1.94-2.81,4.07-3.16,6.37a1.52,1.52,0,0,0,2.51,1.46,55.32,55.32,0,0,0,11.24-13.07L147.4,85.6a35.64,35.64,0,0,1-8.16,12.87l2.12,2.12A32.81,32.81,0,0,0,147.71,89a1.51,1.51,0,0,0-2.51-1.46q-5.79,6.56-11.87,12.85l2.35,1.82c1.65-2.35,3.21-4.76,4.66-7.24a25.31,25.31,0,0,0,3.34-7.35c.3-1.35-1.46-2.66-2.5-1.46-2.59,3-5.09,6-7.52,9.15-1.15,1.47.75,3.56,2.12,2.12,2-2.12,3.62-5.73,2.57-8.67a2.94,2.94,0,0,0-3.35-2,3.85,3.85,0,0,0-2.83,3.06c-1.26,5.36,1.24,11.86,6.23,14.41,1.71.87,3.22-1.65,1.52-2.59a14.46,14.46,0,0,0-7.61-1.82,1.52,1.52,0,0,0-1.06,2.56,25.49,25.49,0,0,0,4.38,3.65c1.34.87,3.08,1.78,4.43.4a1.51,1.51,0,0,0,.23-1.81,20.24,20.24,0,0,0-6.54-6.67l-.76,2.8a29.18,29.18,0,0,1,5.37,1.14c1.85.56,2.64-2.33.79-2.9Z" transform="translate(-7.87 -4.17)"/><path d="M176.57,90.25a13.47,13.47,0,0,1-3.7-1.25l-.75,2.8a27.91,27.91,0,0,1,4.61.85c1.91.52,2.54-2.19.79-2.89a6.89,6.89,0,0,1-3.4-3.1l-1.3,2.26a4.43,4.43,0,0,1,4.4,2.45c.77,1.49,3.37.45,2.74-1.15-1.2-3.09-1.8-7.42,1.41-9.57L179.16,79a13.82,13.82,0,0,1-4.66,7.77L177,88.19a67,67,0,0,1,6.45-12.3l-2.59-1.51a97.82,97.82,0,0,1-6.19,9.41,1.51,1.51,0,0,0,.23,1.82c2,2,4.06-.71,5.25-2.19l5-6.28-2.5-1.46c-2,4.82-5.34,8.94-8.59,12.95-1.21,1.48.88,3.62,2.12,2.12a135.6,135.6,0,0,0,13.65-19.7l-2.8-.76c.1,2.91-2,5.74-3.28,8.2a61.59,61.59,0,0,1-4.91,7.77l2.59,1.51,10.24-16.54-2.79-.76c.22,4.09-2.69,7.7-4.85,10.91-2.3,3.41-4.58,7.09-7.73,9.77l2.12,2.12a91,91,0,0,0,11.95-18.81l-2.74-1.16a47.74,47.74,0,0,1-8.55,15.42l2.5.67c-.81-2.35.56-5,1.33-7.15l2.76-7.85c.65-1.83-2.23-2.6-2.89-.8l-1.3,3.56c-.67,1.81,2.23,2.59,2.89.79l1.3-3.55-2.89-.8-3.05,8.67c-.9,2.54-2,5.24-1,7.92a1.52,1.52,0,0,0,2.51.67,52,52,0,0,0,9.32-16.75c.53-1.59-2-2.7-2.74-1.16a88.43,88.43,0,0,1-11.48,18.21,1.5,1.5,0,0,0,2.12,2.12c3.43-2.91,5.94-7,8.43-10.71s5.27-7.54,5-12.09a1.52,1.52,0,0,0-2.8-.76L178.89,86.26c-1,1.68,1.46,3,2.59,1.51a63.45,63.45,0,0,0,5.29-8.47c1.49-2.78,3.42-5.73,3.31-9a1.51,1.51,0,0,0-2.79-.75,131.69,131.69,0,0,1-13.18,19.09l2.12,2.12c3.61-4.44,7.16-8.93,9.36-14.27.56-1.37-1.59-2.6-2.51-1.46l-3.58,4.46-1.73,2.15-.79,1a6,6,0,0,1-.46.54q-.54.33.51.33l.24,1.82a98,98,0,0,0,6.19-9.42,1.5,1.5,0,0,0-2.59-1.51,70.76,70.76,0,0,0-6.76,13c-.6,1.53,1.5,2.31,2.51,1.46a16.5,16.5,0,0,0,5.44-9.1c.25-1.18-1.05-2.46-2.21-1.69-4.36,2.92-4.53,8.46-2.78,13l2.74-1.15a7.35,7.35,0,0,0-7-3.94,1.52,1.52,0,0,0-1.3,2.26,10.14,10.14,0,0,0,5.21,4.47l.79-2.89a31.82,31.82,0,0,0-5.4-1c-1.49-.15-2,2.14-.76,2.79a16.42,16.42,0,0,0,4.41,1.55c1.89.37,2.7-2.52.8-2.89Z" transform="translate(-7.87 -4.17)"/><path d="M142.07,92.19c0-.25,0-.51.05-.77l0-.35s0-.41,0-.22,0-.19,0-.22l.09-.41a5,5,0,0,1,.22-.65c-.09.19,0,0,0-.08s.11-.19.17-.29c.21-.32-.18.16.12-.14l.27-.27c.32-.29.63-.5,1.1-.85a22.1,22.1,0,0,1,2.68-1.71,6.13,6.13,0,0,1,1.26-.54c.24-.08.48-.15.73-.21l.44-.1c.32-.06-.14,0,.21,0l-1.29-2.25c-.13.22-.27.44-.42.65s-.13.19-.2.29c-.26.37.18-.21-.11.14a11.25,11.25,0,0,1-1.05,1.14l-.53.46c-.35.29.22-.16-.14.11l-.35.25a11.9,11.9,0,0,1-1.34.77l1.82,2.36.52-.46a1.5,1.5,0,0,0,0-2.13,1.55,1.55,0,0,0-2.12,0l-.52.47a1.49,1.49,0,0,0-.12,2,1.52,1.52,0,0,0,1.94.38,12.65,12.65,0,0,0,5.21-4.89,1.51,1.51,0,0,0-1.3-2.26,14.6,14.6,0,0,0-7.08,3.19,14.43,14.43,0,0,0-1.63,1.29,5.25,5.25,0,0,0-1.16,1.81,10.73,10.73,0,0,0-.61,3.55,1.5,1.5,0,0,0,1.5,1.5,1.53,1.53,0,0,0,1.5-1.5Z" transform="translate(-7.87 -4.17)"/></svg>