<svg id="Capa_1" data-name="Capa 1" xmlns="http://www.w3.org/2000/svg" xmlns:xlink="http://www.w3.org/1999/xlink" viewBox="0 0 316.55 266.56"><defs><style>.cls-1,.cls-7{fill:#fff;}.cls-1,.cls-2{fill-rule:evenodd;}.cls-2,.cls-5{fill:#50e3c2;}.cls-3{mask:url(#mask);}.cls-4,.cls-5{isolation:isolate;}.cls-13,.cls-5{font-size:87.41px;font-family:Arial-BoldMT, Arial;font-weight:700;}.cls-13,.cls-6{fill:#572ee5;}.cls-8{fill:#5f2ee5;}.cls-9{fill:#fbf4f4;}.cls-10{fill:#ede2e2;}.cls-11{fill:#451ec8;}.cls-12{fill:#4a1ee3;}.cls-13{letter-spacing:0.01em;}.cls-14{fill:#61596b;}</style><mask id="mask" x="42.88" y="92.57" width="250.9" height="137.02" maskUnits="userSpaceOnUse"><g transform="translate(-7.87 -4.17)"><g id="mask-2"><polygon id="path-1" class="cls-1" points="50.76 96.74 290.34 96.74 290.34 203.36 50.76 203.36 50.76 96.74"/></g></g></mask></defs><title>GIFOSLOGO</title><g id="GIFOS"><g id="_00-UI-Kit" data-name="00-UI-Kit"><g id="logo-mobile"><g id="Group-5"><polygon class="cls-2" points="247.51 114.24 247.51 76.16 190.39 76.16 190.39 19.04 19.04 19.04 19.04 247.52 247.51 247.52 247.51 209.44 266.55 209.44 266.55 266.56 0 266.56 0 0 209.43 0 266.55 57.12 266.55 114.24 247.51 114.24"/><g id="Group-4"><g class="cls-3"><g id="GIFOS-2" data-name="GIFOS" class="cls-4"><text class="cls-5" transform="translate(43.7 196.68) scale(0.92 1)">GIFOS</text></g></g></g></g></g></g></g><path class="cls-6" d="M68.94,151.8a1.5,1.5,0,0,0,0-3,1.5,1.5,0,0,0,0,3Z" transform="translate(-7.87 -4.17)"/><path class="cls-6" d="M154.72,149.76a1.5,1.5,0,0,0,0-3,1.5,1.5,0,0,0,0,3Z" transform="translate(-7.87 -4.17)"/><rect class="cls-7" x="45.4" y="124.56" width="271.15" height="81.7"/><path class="cls-6" d="M210.46,139.28a19.86,19.86,0,0,1-4,1.63l-55.29,15.71a19.67,19.67,0,0,1-24.61-14.77l-8.39-38.79a46,46,0,0,1,5-32.47,42.73,42.73,0,0,1,25.48-20.38l4-1.13A42.77,42.77,0,0,1,185,53a46.09,46.09,0,0,1,21.35,25l10.38,29.35,2.86,8.06a19.69,19.69,0,0,1-9.14,23.86Z" transform="translate(-7.87 -4.17)"/><path class="cls-8" d="M209.3,139.61a19.77,19.77,0,0,1-4,1.63l-27.65,7.85L149.47,50l2-.57a42.72,42.72,0,0,1,32.39,4,46.06,46.06,0,0,1,21.35,25l10.39,29.35,2.85,8.06a19.68,19.68,0,0,1-9.14,23.86Z" transform="translate(-7.87 -4.17)"/><path class="cls-9" d="M206.43,140.91l-55.3,15.7a19.65,19.65,0,0,1-24.6-14.76l-1.81-8.36a36,36,0,0,0,4.57-7.42,41,41,0,0,0,2.19-26.39l0-.1L130.19,95a14,14,0,0,1,9.69-17.11l1-.29a14,14,0,0,1,17.28,9.64L160,93.63,165.8,92,164,85.54a14,14,0,0,1,9.63-17.28l1-.28a14,14,0,0,1,17.24,9.47c1.32,4.48,2.46,9.57,7.07,16.13a36.38,36.38,0,0,0,17.84,13.78l2.85,8.06a19.65,19.65,0,0,1-13.17,25.49Z" transform="translate(-7.87 -4.17)"/><path class="cls-10" d="M206.43,140.91l-27.65,7.85L162.89,92.81,165.8,92,164,85.54a14,14,0,0,1,9.63-17.28l1-.28a14,14,0,0,1,17.24,9.47c1.32,4.48,2.46,9.57,7.07,16.13a36.38,36.38,0,0,0,17.84,13.78l2.85,8.06a19.65,19.65,0,0,1-13.17,25.49Z" transform="translate(-7.87 -4.17)"/><path class="cls-11" d="M182.42,102.15l-7,11.43a9.4,9.4,0,0,1-12.22,3.47l-12-6a5.42,5.42,0,0,1-1.52-8.55l9.64-10.31a6.36,6.36,0,0,1,6.31-1.79l13.62,3.7A5.43,5.43,0,0,1,182.42,102.15Z" transform="translate(-7.87 -4.17)"/><path class="cls-12" d="M182.43,100.83l-7,11.43a9.37,9.37,0,0,1-5.43,4.12l-7.76-27.31a6.37,6.37,0,0,1,3.41,0l13.62,3.71a5.41,5.41,0,0,1,3.19,8.07Z" transform="translate(-7.87 -4.17)"/><text class="cls-13" transform="translate(49.83 200.25) scale(0.92 1)">GIFOS</text><text class="cls-13" transform="translate(49.83 200.25) scale(0.92 1)">GIFOS</text><text x="-7.87" y="-4.17"/><text x="-7.87" y="-4.17"/><circle class="cls-14" cx="135.46" cy="88.01" r="4.18"/><circle class="cls-14" cx="171.19" cy="74.7" r="4.18"/></svg>