<svg id="Capa_1" data-name="Capa 1" xmlns="http://www.w3.org/2000/svg" xmlns:xlink="http://www.w3.org/1999/xlink" viewBox="0 0 292.28 262.94"><defs><style>.cls-1{fill:#572ee5;}.cls-2{fill:#689fae;}.cls-3{fill:#fbf4f4;}.cls-4{fill:#ede2e2;}.cls-5{fill:#565e63;}.cls-6{fill:#464d52;}.cls-7{fill:#451ec8;}.cls-8{fill:#4a1ee3;}.cls-9{fill-rule:evenodd;fill:url(#Degradado_sin_nombre_2);}.cls-10,.cls-13{isolation:isolate;font-family:Arial-BoldMT, Arial;font-weight:700;}.cls-10{font-size:86.22px;}.cls-11{fill:#7cfff1;}.cls-12{fill:url(#Degradado_sin_nombre_2-2);}.cls-13{font-size:85px;fill:#fff;letter-spacing:0.01em;}</style><linearGradient id="Degradado_sin_nombre_2" x1="-18.13" y1="247.97" x2="227.66" y2="14.77" gradientTransform="matrix(1, 0, 0, -1, 0.13, 264.38)" gradientUnits="userSpaceOnUse"><stop offset="0.13" stop-color="#7cf9ff"/><stop offset="0.24" stop-color="#7df7ff"/><stop offset="0.28" stop-color="#81f0ff"/><stop offset="0.31" stop-color="#89e5ff"/><stop offset="0.33" stop-color="#93d4ff"/><stop offset="0.35" stop-color="#a1beff"/><stop offset="0.36" stop-color="#b2a3ff"/><stop offset="0.38" stop-color="#be8fff"/><stop offset="1"/></linearGradient><linearGradient id="Degradado_sin_nombre_2-2" x1="149.47" y1="169.51" x2="219.58" y2="169.51" gradientTransform="matrix(1, 0, 0, -1, -7.87, 263.83)" xlink:href="#Degradado_sin_nombre_2"/></defs><title>GIFOSLOGOTDFW</title><path class="cls-1" d="M61.07,147.63a1.5,1.5,0,1,0-1.5-1.5A1.5,1.5,0,0,0,61.07,147.63Z" transform="translate(0.13 -3.62)"/><path class="cls-1" d="M146.85,145.59a1.5,1.5,0,1,0-1.5-1.5A1.5,1.5,0,0,0,146.85,145.59Z" transform="translate(0.13 -3.62)"/><path class="cls-2" d="M202.59,135.11a19.87,19.87,0,0,1-4,1.63L143.3,152.45A19.67,19.67,0,0,1,119,138.91c-.12-.4-.22-.82-.31-1.23L110.3,98.89a46,46,0,0,1,5-32.47A42.74,42.74,0,0,1,140.78,46l4-1.13a42.8,42.8,0,0,1,32.35,3.92,46.11,46.11,0,0,1,21.35,25l10.38,29.35,2.86,8.06a19.69,19.69,0,0,1-9.14,23.86Z" transform="translate(0.13 -3.62)"/><path class="cls-2" d="M201.43,135.44a19.87,19.87,0,0,1-4,1.63l-27.65,7.85L141.6,45.83l2-.57a42.69,42.69,0,0,1,32.39,4,46,46,0,0,1,21.35,25l10.39,29.35,2.85,8.06a19.68,19.68,0,0,1-9.14,23.86Z" transform="translate(0.13 -3.62)"/><path class="cls-3" d="M198.56,136.74l-55.3,15.7A19.65,19.65,0,0,1,119,138.93c-.11-.41-.22-.83-.31-1.25l-1.81-8.36a36,36,0,0,0,4.57-7.42,41,41,0,0,0,2.19-26.39v-.1l-1.29-4.58A14,14,0,0,1,132,73.72l1-.29a14,14,0,0,1,17.28,9.64l1.84,6.39,5.8-1.63-1.8-6.46a14,14,0,0,1,9.63-17.28l1-.28A14,14,0,0,1,184,73.28c1.32,4.48,2.46,9.57,7.07,16.13a36.36,36.36,0,0,0,17.84,13.78l2.85,8.06a19.66,19.66,0,0,1-11.93,25.1c-.41.14-.82.27-1.24.39Z" transform="translate(0.13 -3.62)"/><path class="cls-4" d="M198.56,136.74l-27.65,7.85L155,88.64l2.91-.81-1.8-6.46a14,14,0,0,1,9.63-17.28l1-.28A14,14,0,0,1,184,73.28c1.32,4.48,2.46,9.57,7.07,16.13a36.36,36.36,0,0,0,17.84,13.78l2.85,8.06a19.66,19.66,0,0,1-11.93,25.1c-.41.14-.82.27-1.24.39Z" transform="translate(0.13 -3.62)"/><circle class="cls-5" cx="136.63" cy="83.72" r="3.02"/><circle class="cls-6" cx="170.22" cy="74.18" r="3.02"/><path class="cls-7" d="M174.55,98l-7,11.43a9.4,9.4,0,0,1-12.22,3.47l-12-6a5.43,5.43,0,0,1-2.41-7.28,5.29,5.29,0,0,1,.89-1.27L151.45,88a6.35,6.35,0,0,1,6.31-1.79l13.62,3.7a5.43,5.43,0,0,1,3.76,6.7A5.23,5.23,0,0,1,174.55,98Z" transform="translate(0.13 -3.62)"/><path class="cls-8" d="M174.56,96.66l-7,11.43a9.36,9.36,0,0,1-5.43,4.12L154.37,84.9a6.37,6.37,0,0,1,3.41,0l13.62,3.71a5.41,5.41,0,0,1,3.81,6.63,5.1,5.1,0,0,1-.62,1.44Z" transform="translate(0.13 -3.62)"/><g id="GIFOS"><g id="_00-UI-Kit" data-name=" 00-UI-Kit"><g id="logo-mobile"><g id="Group-5"><polygon class="cls-9" points="244.1 112.69 244.1 75.13 187.77 75.13 187.77 18.78 18.78 18.78 18.78 244.16 244.1 244.16 244.1 206.6 262.88 206.6 262.88 262.94 0 262.94 0 0 206.55 0 262.88 56.34 262.88 112.69 244.1 112.69"/><g id="Group-4"><g id="GIFOS-2"><text class="cls-10" transform="translate(43.1 194.01) scale(0.92 1)">GIFOS</text></g></g></g></g></g></g><path class="cls-1" d="M61.07,147.63a1.5,1.5,0,1,0-1.5-1.5A1.5,1.5,0,0,0,61.07,147.63Z" transform="translate(0.13 -3.62)"/><path class="cls-1" d="M146.85,145.59a1.5,1.5,0,1,0-1.5-1.5A1.5,1.5,0,0,0,146.85,145.59Z" transform="translate(0.13 -3.62)"/><path class="cls-11" d="M202.59,135.11a19.87,19.87,0,0,1-4,1.63L143.3,152.45A19.67,19.67,0,0,1,119,138.91c-.12-.4-.22-.82-.31-1.23L110.3,98.89a46,46,0,0,1,5-32.47A42.74,42.74,0,0,1,140.78,46l4-1.13a42.8,42.8,0,0,1,32.35,3.92,46.11,46.11,0,0,1,21.35,25l10.38,29.35,2.86,8.06a19.69,19.69,0,0,1-9.14,23.86Z" transform="translate(0.13 -3.62)"/><path class="cls-12" d="M201.43,135.44a19.87,19.87,0,0,1-4,1.63l-27.65,7.85L141.6,45.83l2-.57a42.69,42.69,0,0,1,32.39,4,46,46,0,0,1,21.35,25l10.39,29.35,2.85,8.06a19.68,19.68,0,0,1-9.14,23.86Z" transform="translate(0.13 -3.62)"/><path class="cls-3" d="M198.56,136.74l-55.3,15.7A19.65,19.65,0,0,1,119,138.93c-.11-.41-.22-.83-.31-1.25l-1.81-8.36a36,36,0,0,0,4.57-7.42,41,41,0,0,0,2.19-26.39v-.1l-1.29-4.58A14,14,0,0,1,132,73.72l1-.29a14,14,0,0,1,17.28,9.64l1.84,6.39,5.8-1.63-1.8-6.46a14,14,0,0,1,9.63-17.28l1-.28A14,14,0,0,1,184,73.28c1.32,4.48,2.46,9.57,7.07,16.13a36.36,36.36,0,0,0,17.84,13.78l2.85,8.06a19.66,19.66,0,0,1-11.93,25.1c-.41.14-.82.27-1.24.39Z" transform="translate(0.13 -3.62)"/><path class="cls-4" d="M198.56,136.74l-27.65,7.85L155,88.64l2.91-.81-1.8-6.46a14,14,0,0,1,9.63-17.28l1-.28A14,14,0,0,1,184,73.28c1.32,4.48,2.46,9.57,7.07,16.13a36.36,36.36,0,0,0,17.84,13.78l2.85,8.06a19.66,19.66,0,0,1-11.93,25.1c-.41.14-.82.27-1.24.39Z" transform="translate(0.13 -3.62)"/><path class="cls-7" d="M174.55,98l-7,11.43a9.4,9.4,0,0,1-12.22,3.47l-12-6a5.43,5.43,0,0,1-2.41-7.28,5.29,5.29,0,0,1,.89-1.27L151.45,88a6.35,6.35,0,0,1,6.31-1.79l13.62,3.7a5.43,5.43,0,0,1,3.76,6.7A5.23,5.23,0,0,1,174.55,98Z" transform="translate(0.13 -3.62)"/><path class="cls-8" d="M174.56,96.66l-7,11.43a9.36,9.36,0,0,1-5.43,4.12L154.37,84.9a6.37,6.37,0,0,1,3.41,0l13.62,3.71a5.41,5.41,0,0,1,3.81,6.63,5.1,5.1,0,0,1-.62,1.44Z" transform="translate(0.13 -3.62)"/><text class="cls-13" transform="translate(45.06 192.06) scale(0.92 1)">GIFOS</text><path d="M190.81,61.31l-6,1.57-30.18,7.87.7,2.69.84,1.94-5.6,1.45-.22-2.11-.7-2.68-36.2,9.44-3.65,1L111,87.19l3.64-1L119.5,97.5a12,12,0,0,0,6,6.13,13.22,13.22,0,0,0,8.87.76l7.77-2a13.29,13.29,0,0,0,7.38-5,12,12,0,0,0,2.27-8.3l-.76-7.3L158,80l2.9,6.73a12,12,0,0,0,6,6.14,13.23,13.23,0,0,0,8.87.75l7.78-2a13.27,13.27,0,0,0,7.37-5,12,12,0,0,0,2.27-8.3L191.94,66.1l3.64-1-1.23-4.71ZM129.62,99.75a7.35,7.35,0,0,1-5.36-4.2l8.79-14.15,9.53-2.48ZM171,88.9a7.35,7.35,0,0,1-5.27-4.22V84.6l8.69-14L184,68.12Z" transform="translate(0.13 -3.62)"/><path d="M131.28,94.83a34.1,34.1,0,0,0-6.15-1.27c-1.57-.17-1.91,2.07-.76,2.8a16.86,16.86,0,0,1,5.47,5.58l.24-1.82c.25-.26.52.07.25-.23a2.84,2.84,0,0,0-.56-.33c-.54-.34-1.07-.69-1.58-1.07a21.94,21.94,0,0,1-2.68-2.42l-1.06,2.56a11.45,11.45,0,0,1,6.09,1.41l1.52-2.59a9.8,9.8,0,0,1-5-8.31,10.88,10.88,0,0,1,.11-2.55c.06-.27.14-.88.43-1s.05-.07.12.2c.51,1.82-.7,4.12-1.91,5.38l2.12,2.12q3.65-4.67,7.52-9.14l-2.51-1.46a23.63,23.63,0,0,1-3.25,7c-1.39,2.35-2.88,4.64-4.45,6.89-1,1.4,1.19,3,2.36,1.81q6.08-6.28,11.88-12.84L137,84.09a29.2,29.2,0,0,1-5.58,10.25c-1.23,1.45.74,3.51,2.12,2.12a39,39,0,0,0,8.93-14.19c.59-1.64-1.88-2.56-2.74-1.16a52.48,52.48,0,0,1-10.79,12.42l2.5,1.46c.33-2.15,2-4.19,3.08-6,1.29-2.08,2.63-4.13,4-6.15.93-1.35-.83-2.62-2.06-2a56.17,56.17,0,0,0-5.56,3c-1.4.85-.51,3.32,1.15,2.74a70.88,70.88,0,0,0,10.6-4.75,1.51,1.51,0,0,0-1.16-2.74,48.94,48.94,0,0,1-11.55,1.47l.4,3q5.79-1.2,11.5-2.72c1.89-.5,1.07-3.21-.8-2.89a58.45,58.45,0,0,0-7.73,1.88c-1.55.48-1.36,3,.4,2.94a22.21,22.21,0,0,0,6.64-1.38c1.79-.68,1-3.58-.8-2.89a19.82,19.82,0,0,1-5.84,1.27l.39,3a58.8,58.8,0,0,1,7.74-1.94l-.8-2.89q-5.72,1.52-11.49,2.72c-1.68.35-1.28,3,.39,2.94A53.05,53.05,0,0,0,142.26,82l-1.13-2.77a67,67,0,0,1-9.84,4.37l1.16,2.74a56.33,56.33,0,0,1,5.57-3L136,81.3q-2.22,3.21-4.26,6.52c-1.19,1.94-2.81,4.07-3.16,6.37a1.52,1.52,0,0,0,2.51,1.46A55.12,55.12,0,0,0,142.3,82.58l-2.77-1.15a35.55,35.55,0,0,1-8.16,12.87l2.12,2.12a32.86,32.86,0,0,0,6.35-11.59A1.5,1.5,0,0,0,138.75,83a1.51,1.51,0,0,0-1.42.37q-5.79,6.55-11.87,12.85L127.81,98c1.65-2.35,3.21-4.76,4.66-7.24a25.31,25.31,0,0,0,3.34-7.35c.3-1.35-1.46-2.66-2.5-1.46-2.59,3-5.09,6-7.52,9.15-1.15,1.47.75,3.56,2.12,2.12,2-2.12,3.62-5.73,2.57-8.67a2.94,2.94,0,0,0-3.35-2,3.85,3.85,0,0,0-2.83,3.06c-1.26,5.36,1.24,11.86,6.23,14.41,1.71.87,3.22-1.65,1.52-2.59a14.53,14.53,0,0,0-7.61-1.82,1.52,1.52,0,0,0-1.06,2.56,25.49,25.49,0,0,0,4.38,3.65c1.34.87,3.08,1.78,4.43.4a1.51,1.51,0,0,0,.23-1.81,20.24,20.24,0,0,0-6.54-6.67l-.76,2.8a29,29,0,0,1,5.37,1.14c1.85.56,2.64-2.33.79-2.9Z" transform="translate(0.13 -3.62)"/><path d="M168.7,86.08a13.47,13.47,0,0,1-3.7-1.25l-.75,2.8a27.72,27.72,0,0,1,4.61.85c1.91.52,2.54-2.19.79-2.89a6.85,6.85,0,0,1-3.4-3.1L165,84.75a4.43,4.43,0,0,1,4.4,2.45c.77,1.49,3.37.45,2.74-1.15-1.2-3.09-1.8-7.42,1.41-9.57l-2.21-1.65a13.85,13.85,0,0,1-4.66,7.77l2.5,1.42a67.36,67.36,0,0,1,6.45-12.3L173,70.21a99.08,99.08,0,0,1-6.19,9.41,1.51,1.51,0,0,0,.23,1.82c2,2,4.06-.71,5.25-2.19l5-6.28-2.5-1.46c-2,4.82-5.34,8.94-8.59,12.95-1.21,1.48.88,3.62,2.12,2.12A135.6,135.6,0,0,0,182,66.88l-2.8-.76c.1,2.91-2,5.74-3.28,8.2A60.88,60.88,0,0,1,171,82.09l2.59,1.51L183.8,67.06,181,66.3c.22,4.09-2.69,7.7-4.85,10.91-2.3,3.41-4.58,7.09-7.73,9.77l2.12,2.12A91,91,0,0,0,182.5,70.29l-2.74-1.16a47.74,47.74,0,0,1-8.55,15.42l2.5.67c-.81-2.35.56-5,1.33-7.15l2.76-7.85c.65-1.83-2.23-2.6-2.89-.8L173.61,73c-.67,1.81,2.23,2.59,2.89.79l1.3-3.55-2.89-.8-3,8.67c-.9,2.54-2,5.24-1,7.92a1.52,1.52,0,0,0,1.89,1,1.56,1.56,0,0,0,.62-.36,52,52,0,0,0,9.32-16.75c.53-1.59-2-2.7-2.74-1.16A88.7,88.7,0,0,1,168.47,87a1.5,1.5,0,0,0,2.12,2.12c3.43-2.91,5.94-7,8.43-10.71s5.27-7.54,5-12.09a1.52,1.52,0,0,0-2.8-.76L171,82.09c-1,1.68,1.46,3,2.59,1.51a63.84,63.84,0,0,0,5.29-8.47c1.49-2.78,3.42-5.73,3.31-9a1.51,1.51,0,0,0-2.79-.75,130.9,130.9,0,0,1-13.18,19.09l2.12,2.12c3.61-4.44,7.16-8.93,9.36-14.27.56-1.37-1.59-2.6-2.51-1.46l-3.58,4.46-1.73,2.15-.79,1a6,6,0,0,1-.46.54q-.54.33.51.33l.24,1.82a98,98,0,0,0,6.19-9.42A1.5,1.5,0,0,0,173,70.23a70.68,70.68,0,0,0-6.76,13c-.6,1.53,1.5,2.31,2.51,1.46a16.44,16.44,0,0,0,5.44-9.1c.25-1.18-1.05-2.46-2.21-1.69-4.36,2.92-4.53,8.46-2.78,13l2.74-1.15a7.36,7.36,0,0,0-7-3.94,1.52,1.52,0,0,0-1.49,1.55,1.48,1.48,0,0,0,.19.71,10.14,10.14,0,0,0,5.21,4.47l.79-2.89a31.9,31.9,0,0,0-5.4-1c-1.49-.15-2,2.14-.76,2.79A16.42,16.42,0,0,0,167.89,89c1.89.37,2.7-2.52.8-2.89Z" transform="translate(0.13 -3.62)"/><path d="M134.2,88a4,4,0,0,1,.05-.77v-.79l.09-.41a5,5,0,0,1,.22-.65c-.09.19,0,0,0-.08s.11-.19.17-.29c.21-.32-.18.16.12-.14l.27-.27c.32-.29.63-.5,1.1-.85a22.1,22.1,0,0,1,2.68-1.71,5.84,5.84,0,0,1,1.26-.54c.24-.08.48-.15.73-.21l.44-.1c.32-.06-.14,0,.21,0L140.25,79c-.13.22-.27.44-.42.65l-.2.29c-.26.37.18-.21-.11.14a11.25,11.25,0,0,1-1.05,1.14l-.53.46c-.35.29.22-.16-.14.11l-.35.25a11.9,11.9,0,0,1-1.34.77l1.82,2.36.52-.46a1.5,1.5,0,0,0,0-2.12h0a1.55,1.55,0,0,0-2.12,0l-.52.47a1.49,1.49,0,0,0-.12,2,1.51,1.51,0,0,0,1.94.38,12.66,12.66,0,0,0,5.21-4.89,1.52,1.52,0,0,0-.56-2.06,1.49,1.49,0,0,0-.74-.2,14.61,14.61,0,0,0-7.08,3.19,14.43,14.43,0,0,0-1.63,1.29,5.25,5.25,0,0,0-1.16,1.81,10.73,10.73,0,0,0-.61,3.55,1.5,1.5,0,0,0,1.5,1.5,1.54,1.54,0,0,0,1.5-1.5Z" transform="translate(0.13 -3.62)"/></svg>